<svg width="20" height="20" viewBox="0 0 20 20" fill="none" xmlns="http://www.w3.org/2000/svg">
<path fill-rule="evenodd" clip-rule="evenodd" d="M10 0C15.523 0 20 4.477 20 10C20 15.523 15.523 20 10 20C4.477 20 0 15.523 0 10C0 4.477 4.477 0 10 0ZM10 11C8.78223 11 7.60633 11.4445 6.693 12.25C6.49409 12.4254 6.37302 12.6727 6.35642 12.9374C6.33982 13.2021 6.42906 13.4626 6.6045 13.6615C6.77994 13.8604 7.02721 13.9815 7.29192 13.9981C7.55663 14.0147 7.81709 13.9254 8.016 13.75C8.56395 13.2668 9.2694 13.0001 10 13C10.7309 12.9982 11.437 13.2651 11.984 13.75C12.1829 13.9256 12.4434 14.0149 12.7082 13.9984C12.973 13.9819 13.2204 13.8609 13.396 13.662C13.5716 13.4631 13.6609 13.2026 13.6444 12.9378C13.6279 12.673 13.5069 12.4256 13.308 12.25C12.3944 11.4443 11.2181 10.9998 10 11ZM5.106 6.553C4.98758 6.79013 4.96814 7.06456 5.05196 7.31601C5.13577 7.56746 5.31599 7.77535 5.553 7.894L7.553 8.894C7.67088 8.95757 7.80032 8.99681 7.93365 9.00939C8.06698 9.02198 8.20148 9.00766 8.32917 8.96728C8.45686 8.9269 8.57514 8.86128 8.67699 8.77431C8.77883 8.68735 8.86217 8.58082 8.92207 8.46103C8.98196 8.34125 9.01718 8.21066 9.02564 8.077C9.0341 7.94334 9.01563 7.80935 8.97132 7.68297C8.92702 7.55659 8.85777 7.4404 8.7677 7.34128C8.67764 7.24217 8.56858 7.16216 8.447 7.106L6.447 6.106C6.20987 5.98758 5.93544 5.96814 5.68399 6.05196C5.43254 6.13577 5.22465 6.31599 5.106 6.553ZM13.553 6.106L11.553 7.106C11.4314 7.16216 11.3224 7.24217 11.2323 7.34128C11.1422 7.4404 11.073 7.55659 11.0287 7.68297C10.9844 7.80935 10.9659 7.94334 10.9744 8.077C10.9828 8.21066 11.018 8.34125 11.0779 8.46103C11.1378 8.58082 11.2212 8.68735 11.323 8.77431C11.4249 8.86128 11.5431 8.9269 11.6708 8.96728C11.7985 9.00766 11.933 9.02198 12.0663 9.00939C12.1997 8.99681 12.3291 8.95757 12.447 8.894L14.447 7.894C14.5686 7.83784 14.6776 7.75783 14.7677 7.65872C14.8578 7.5596 14.927 7.44341 14.9713 7.31703C15.0156 7.19065 15.0341 7.05666 15.0256 6.923C15.0172 6.78934 14.982 6.65875 14.9221 6.53897C14.8622 6.41918 14.7788 6.31265 14.677 6.22569C14.5751 6.13872 14.4569 6.0731 14.3292 6.03272C14.2015 5.99234 14.067 5.97802 13.9337 5.99061C13.8003 6.00319 13.6709 6.04243 13.553 6.106Z" fill="#FF686B"/>
</svg>
