<svg width="24" height="24" viewBox="0 0 24 24" fill="none" xmlns="http://www.w3.org/2000/svg">
<path fill-rule="evenodd" clip-rule="evenodd" d="M12 2C12.4396 2.00078 12.8667 2.14638 13.2153 2.41428C13.5638 2.68219 13.8144 3.05747 13.9282 3.48209C14.0421 3.90671 14.0128 4.35701 13.8451 4.76335C13.6773 5.16968 13.3803 5.50941 13 5.73V6H16C17.0609 6 18.0783 6.42143 18.8284 7.17157C19.5786 7.92172 20 8.93913 20 10V10.05C20.5643 10.1657 21.0714 10.4727 21.4355 10.9191C21.7996 11.3655 21.9985 11.9239 21.9985 12.5C21.9985 13.0761 21.7996 13.6345 21.4355 14.0809C21.0714 14.5273 20.5643 14.8343 20 14.95V16C20 17.0609 19.5786 18.0783 18.8284 18.8284C18.0783 19.5786 17.0609 20 16 20H8C6.93914 20 5.92172 19.5786 5.17158 18.8284C4.42143 18.0783 4 17.0609 4 16V14.95C3.43486 14.8352 2.92677 14.5286 2.56182 14.0821C2.19686 13.6356 1.9975 13.0767 1.9975 12.5C1.9975 11.9233 2.19686 11.3644 2.56182 10.9179C2.92677 10.4714 3.43486 10.1648 4 10.05V10C4 8.93913 4.42143 7.92172 5.17158 7.17157C5.92172 6.42143 6.93914 6 8 6H11V5.73C10.6197 5.50941 10.3227 5.16968 10.1549 4.76335C9.98716 4.35701 9.95792 3.90671 10.0718 3.48209C10.1856 3.05747 10.4362 2.68219 10.7847 2.41428C11.1333 2.14638 11.5604 2.00078 12 2ZM9 11C8.73479 11 8.48043 11.1054 8.2929 11.2929C8.10536 11.4804 8 11.7348 8 12V14C8 14.2652 8.10536 14.5196 8.2929 14.7071C8.48043 14.8946 8.73479 15 9 15C9.26522 15 9.51957 14.8946 9.70711 14.7071C9.89465 14.5196 10 14.2652 10 14V12C10 11.7348 9.89465 11.4804 9.70711 11.2929C9.51957 11.1054 9.26522 11 9 11ZM15 11C14.7348 11 14.4804 11.1054 14.2929 11.2929C14.1054 11.4804 14 11.7348 14 12V14C14 14.2652 14.1054 14.5196 14.2929 14.7071C14.4804 14.8946 14.7348 15 15 15C15.2652 15 15.5196 14.8946 15.7071 14.7071C15.8946 14.5196 16 14.2652 16 14V12C16 11.7348 15.8946 11.4804 15.7071 11.2929C15.5196 11.1054 15.2652 11 15 11Z" fill="white"/>
</svg>
