<svg width="21" height="21" viewBox="0 0 21 21" fill="none" xmlns="http://www.w3.org/2000/svg">
<g clip-path="url(#clip0_1_1716)">
<path d="M10.5 20.125C5.18438 20.125 0.875 15.8156 0.875 10.5C0.875 5.18438 5.18438 0.875 10.5 0.875C15.8156 0.875 20.125 5.18438 20.125 10.5C20.125 15.8156 15.8156 20.125 10.5 20.125ZM9.625 7.91L6.66575 6.24575L5.80825 7.77087L7.40075 8.66775L5.775 9.8875L6.825 11.2875L9.625 9.1875V7.91ZM13.5975 8.66775L15.1909 7.77087L14.3334 6.24575L11.375 7.91V9.1875L14.175 11.2875L15.225 9.8875L13.5975 8.66775ZM10.5 16.625C11.6603 16.625 12.7731 16.1641 13.5936 15.3436C14.4141 14.5231 14.875 13.4103 14.875 12.25H6.125C6.125 13.4103 6.58594 14.5231 7.40641 15.3436C8.22688 16.1641 9.33968 16.625 10.5 16.625Z" fill="#0ECD31"/>
</g>
<defs>
<clipPath id="clip0_1_1716">
<rect width="21" height="21" fill="white"/>
</clipPath>
</defs>
</svg>
