<svg width="20" height="20" viewBox="0 0 20 20" fill="none" xmlns="http://www.w3.org/2000/svg">
<path fill-rule="evenodd" clip-rule="evenodd" d="M0 10C0 4.477 4.477 0 10 0C15.523 0 20 4.477 20 10C20 15.523 15.523 20 10 20C4.477 20 0 15.523 0 10ZM7 6C6.60218 6 6.22064 6.15804 5.93934 6.43934C5.65804 6.72064 5.5 7.10218 5.5 7.5V7.51C5.5 7.90782 5.65804 8.28936 5.93934 8.57066C6.22064 8.85196 6.60218 9.01 7 9.01H7.01C7.40782 9.01 7.78936 8.85196 8.07066 8.57066C8.35196 8.28936 8.51 7.90782 8.51 7.51V7.5C8.51 7.10218 8.35196 6.72064 8.07066 6.43934C7.78936 6.15804 7.40782 6 7.01 6H7ZM13 6C12.6022 6 12.2206 6.15804 11.9393 6.43934C11.658 6.72064 11.5 7.10218 11.5 7.5V7.51C11.5 7.90782 11.658 8.28936 11.9393 8.57066C12.2206 8.85196 12.6022 9.01 13 9.01H13.01C13.4078 9.01 13.7894 8.85196 14.0707 8.57066C14.352 8.28936 14.51 7.90782 14.51 7.51V7.5C14.51 7.10218 14.352 6.72064 14.0707 6.43934C13.7894 6.15804 13.4078 6 13.01 6H13ZM6 13C6 12.7348 6.10536 12.4804 6.29289 12.2929C6.48043 12.1054 6.73478 12 7 12H13C13.2652 12 13.5196 12.1054 13.7071 12.2929C13.8946 12.4804 14 12.7348 14 13C14 13.2652 13.8946 13.5196 13.7071 13.7071C13.5196 13.8946 13.2652 14 13 14H7C6.73478 14 6.48043 13.8946 6.29289 13.7071C6.10536 13.5196 6 13.2652 6 13Z" fill="white"/>
</svg>
